<svg width="210" height="512" viewBox="0 0 210 512" fill="none" xmlns="http://www.w3.org/2000/svg">
<path d="M149.459 297.95C149.459 287.55 147.409 279.55 143.309 273.95C139.309 268.25 133.959 264.3 127.259 262.1C120.559 259.9 113.209 258.8 105.209 258.8H69.9586V334.55H104.009C109.109 334.55 114.309 334.05 119.609 333.05C124.909 332.05 129.809 330.25 134.309 327.65C138.909 325.05 142.559 321.4 145.259 316.7C148.059 311.9 149.459 305.65 149.459 297.95ZM141.209 202.85C141.209 191.15 137.559 182.85 130.259 177.95C123.059 172.95 113.209 170.45 100.709 170.45H69.9586V237.35H103.259C115.459 237.35 124.809 234.65 131.309 229.25C137.909 223.75 141.209 214.95 141.209 202.85ZM176.909 297.05C176.909 308.25 174.659 317.65 170.159 325.25C165.759 332.85 159.809 338.9 152.309 343.4C144.909 347.9 136.609 351.15 127.409 353.15C118.309 355.05 109.009 356 99.5086 356H44.0086V149.45H94.8586C103.959 149.45 112.809 150.3 121.409 152C130.109 153.6 137.909 156.4 144.809 160.4C151.809 164.3 157.409 169.6 161.609 176.3C165.809 183 167.909 191.4 167.909 201.5C167.909 210.4 166.059 217.95 162.359 224.15C158.759 230.25 154.009 235.15 148.109 238.85C142.309 242.55 136.109 245.15 129.509 246.65C137.209 247.85 144.659 250.2 151.859 253.7C159.159 257.1 165.159 262.3 169.859 269.3C174.559 276.2 176.909 285.45 176.909 297.05Z" fill="#C9C7BA"/>
<path d="M114.424 115V415H95.6738V115H114.424Z" fill="#C9C7BA"/>
</svg>
