<svg width="380" height="557" viewBox="0 0 380 557" fill="none" xmlns="http://www.w3.org/2000/svg">
<path d="M233.5 538.5C219.1 554.5 198 555 174 555C148 555 133.1 546.7 123.5 543.5C111.5 539.5 95 519 88.5 509.5C82 500 61.5 471 55.5 463.5C49.5 456 38 439.5 34.5 434C31.7 429.6 27.6667 408.833 26 399C25.1667 397.833 23.2 395.1 22 393.5C20.5 391.5 19 388 18.5 384C18.1 380.8 18.3333 372 18.5 368C18 366.667 16.9 363.6 16.5 362C16 360 15.5 354.5 15 351.5C14.5 348.5 9.5 332 8 327C6.5 322 1.00001 302 0.500011 298.5C1.0699e-05 295 1.50001 289.5 2.50001 285.5C3.50001 281.5 11.5 275.5 14 275C16 274.6 22.8333 274.833 26 275C25.8333 274.5 25.2 273.1 24 271.5C22.5 269.5 23 262.5 21 259C19.4 256.2 18.3333 241.333 19 234C18.1667 229.833 18.4 219 18 209C17.5 196.5 15.5 190.5 18 170.5C20.5 150.5 22 132 20.5 120.5C19 109 19.5 97 21.5 83C23.1 71.8 40.5 53.3333 49 45.5C62.1667 38.3333 106 23.8 176 23C263.5 22 299 40.5 302.5 45.5C305.3 49.5 312.333 69.1667 315.5 78.5C318.667 80 326 83.9 330 87.5C335 92 337 104 341 115.5C345 127 349.5 154.5 349.5 164.5V213.5C349.5 224 348 255 348 258.5C348 261.3 345.833 269.333 344 273C348 272.167 357.1 270.5 361.5 270.5C367 270.5 372 275.5 375 281C378 286.5 380 299 380 304.5C380 309 376.5 317 373.5 322C371.1 326 365.833 336 363.5 340.5C362.5 343.333 360.4 349.6 360 352C359.5 355 350 368.5 349.5 369.5C349 370.5 349 376 347.5 382C346 388 339.5 394.5 335.5 395C332.3 395.4 329.5 393.167 328.5 392C328.167 395 326.9 402.4 324.5 408C321.5 415 308.5 445.5 301.5 459C294.5 472.5 251.5 518.5 233.5 538.5Z" fill="#B7B5A4"/>
<path d="M199 242.5C196.2 245.3 194.5 249.667 194 251.5C194 254.5 200.5 254.5 203 254.5C205.5 254.5 212.5 250 214.5 248.5C216.5 247 239 244 246.5 243.5C254 243 265.5 246 270.5 247C274.5 247.8 281.5 253 284.5 255.5L284 253.5L286.5 254.5H288.5L285.5 250L289 251.5C287.833 250.167 285.2 247.2 284 246C282.8 244.8 274.5 239.167 270.5 236.5C266.5 235.5 258 233.5 256 233.5H241.5L228.5 234.5L231.5 233.5C229.5 233.333 225 233.1 223 233.5C221 233.9 216.5 235.667 214.5 236.5L216.5 232.5L205.5 241L208.5 236.5C206.5 237.333 201.8 239.7 199 242.5Z" fill="#938F79"/>
<path d="M143.77 239.336C146.771 241.92 148.792 246.148 149.427 247.939C149.651 250.93 143.169 251.415 140.676 251.601C138.183 251.787 130.867 247.822 128.76 246.475C126.654 245.128 103.993 243.814 96.4767 243.874C88.9603 243.934 77.7159 247.783 72.8043 249.153C68.8751 250.249 62.2821 255.956 59.4768 258.673L59.8264 256.641L57.4079 257.825L55.4134 257.974L58.0697 253.263L54.6912 255.02C55.7552 253.603 58.1601 250.448 59.2673 249.162C60.3746 247.876 68.2316 241.64 72.0217 238.682C75.936 237.387 84.2633 234.759 86.2577 234.61L100.717 233.529L113.756 233.557L110.69 232.784C112.672 232.469 117.142 231.9 119.166 232.15C121.19 232.4 125.809 233.826 127.866 234.508L125.573 230.669L137.176 238.325L133.849 234.061C135.906 234.743 140.769 236.753 143.77 239.336Z" fill="#938F79"/>
<path d="M344 273L337 277L334 294C332.167 294.167 328.5 294.1 328.5 292.5C328.5 290.5 326 277 324.5 268C323 259 314.5 238.5 309.5 224C304.5 209.5 305.5 182.5 305 173C304.5 163.5 305.5 142 302.5 126C299.5 110 281 102 259.5 98.5C238 95 222 100 216.5 104C211 108 186.5 117 159.5 117.5C132.5 118 119.5 103.5 101.5 104C83.5 104.5 68 111 61.5 115C55 119 49 133.5 47 144C45 154.5 43 199 42.5 204.5C42 210 34.5 243.5 34 255.5C33.6 265.1 31.8333 280.833 31 287.5H28.5V277.5C28.5 276.3 25.1667 275.333 23.5 275C22.5 271.5 20.3 263.9 19.5 261.5C18.5 258.5 17.5 242 17.5 235.5C17.5 229 15.5 220 15.5 212.5C15.5 206.5 16.8333 184.667 17.5 174.5C18 162.667 19 135.6 19 122C19 105 19.5 98 20.5 86C21.5 74 32 62.5 36.5 54.5C41 46.5 50.5 40 53.5 38.5C55.9 37.3 60.8333 33.3333 63 31.5H60L65 28L74.5 24.5L72.5 22.5C74 22.5 77.4 22.1 79 20.5C80.6 18.9 84.6667 17.5 86.5 17L83.5 15.5C84.6667 15 87.9 13.8 91.5 13C95.1 12.2 98.3333 12.6667 99.5 13L98 10C99.6667 10.6667 103.8 12 107 12H114.5L112.5 8.5L119 10L116 6L128 10L125.5 6L138 7.5L136.5 4.5C139.333 5 145.9 6 149.5 6H156.5L154 3L168 6L164.5 3L178 6V3L185 4.5L180.5 0C184.167 2 192 6.3 194 7.5C196 8.7 200.833 9.66667 203 10L198.5 4.5C202.167 6.33333 210.9 10.6 216.5 13C222.1 15.4 227.5 16.6667 229.5 17L225 13L234.5 15.5L231 12C232 12.3333 234.7 13 237.5 13C240.3 13 245 15.6667 247 17L242 12C245.667 13.3333 253.8 16.6 257 19C260.2 21.4 261.333 22.3333 261.5 22.5L257 10C260.833 13.6667 269.1 21.7 271.5 24.5C273.9 27.3 282.833 32.6667 287 35L281 22.5C288 29 302.7 43.2 305.5 48C308.3 52.8 313.667 70 316 78C316.833 77.8333 319.4 78.1 323 80.5C327.5 83.5 331 87.5 334.5 94C338 100.5 341.5 117 344.5 125C347.5 133 350.5 158.5 350.5 170V221.5C350.5 231 348.5 255.5 348.5 261.5C348.5 266.3 345.5 271.167 344 273Z" fill="#938F79"/>
<path fill-rule="evenodd" clip-rule="evenodd" d="M27 319C28.1667 336 30.7 371 31.5 375C32.5 380 43.5 401 52 407C58.8 411.8 78.1667 428 87 435.5C83.8333 425.667 77.8 404.8 79 400C80.5 394 83.5 386 87 385C90.5 384 117.5 375 120 373C122.5 371 128 367.5 130 367.5C130.17 367.5 130.445 367.496 130.808 367.492C134.712 367.44 148.798 367.255 152 370C155.5 373 166 380.5 170.5 379.5C172.642 379.024 177.048 376.85 181.402 374.701C186.197 372.335 190.928 370 192.5 370C195.5 370 209 371 214.5 373C216.299 373.654 219.648 375.164 223.499 376.899C231.423 380.471 241.472 385 244.5 385C244.887 385 245.356 384.996 245.89 384.992C251.563 384.947 264.629 384.844 266 388.5C267.5 392.5 270 403.5 270 407C270 409.8 263.667 427.167 260.5 435.5C269.5 428.167 289.1 411.4 295.5 403C297.961 399.77 301.226 396.067 304.626 392.212C312.279 383.532 320.615 374.078 322 367.5C322.762 363.881 324.104 359.101 325.447 354.321C327.628 346.553 329.81 338.786 329.5 336C329.1 332.4 329.333 323.167 329.5 319H332.5V358C332.5 370 328 398.5 322 414C318.518 422.996 312.509 434.687 308.08 443.305C304.877 449.536 302.5 454.161 302.5 455C302.5 457 274 497.5 270 501.5C268.392 503.108 263.471 508.595 257.868 514.842C249.533 524.134 239.691 535.108 237 537.5C236.188 538.222 235.229 539.107 234.177 540.078C229.398 544.488 222.688 550.68 219 551.5C214.5 552.5 189.5 557 181.5 557C173.5 557 136 553.5 128 549.5C120 545.5 103 530.5 95 523C88.1272 516.557 74.9809 495.352 69.1935 486.018C68.2444 484.487 67.4931 483.275 67 482.5C63.5 477 49 457 45 451.5C44.2082 450.411 43.299 449.205 42.3303 447.92C38.4052 442.713 33.5052 436.213 31.5 431C31.2054 430.234 30.897 429.461 30.5813 428.67C28.2169 422.746 25.4411 415.792 25 403C24.6325 392.342 24.8052 380.062 24.9226 371.722C24.9649 368.716 25 366.222 25 364.5C25 360.751 24.3347 353.01 23.7715 346.458C23.3582 341.65 23 337.481 23 336C23 333.2 23.6667 323.5 24 319H27ZM99.5 405C115.667 404 150.9 401.9 162.5 401.5C177 401 209 402 215 402.5C219.8 402.9 237 404.667 245 405.5L254 405C252 410 248 421 248 425C248 430 237 453 232.5 458C228 463 214 470.5 211.5 471.5C209 472.5 207 465 207.5 461.5C207.9 458.7 209 446 209.5 440C201.167 441.5 183.7 444.5 180.5 444.5C178.559 444.5 172.026 444.029 165.3 443.544C158.166 443.03 150.816 442.5 148.5 442.5C144.9 442.5 137.333 439.5 134 438C135 443.5 137 455.2 137 458C137 459.073 137.282 460.756 137.586 462.575C138.275 466.69 139.081 471.5 137 471.5C134 471.5 125.5 470.5 120 466C114.5 461.5 109 456 106 448C105.678 447.142 105.339 446.243 104.988 445.314C102.069 437.579 98.3391 427.695 97 421C95.8 415 92.8333 406.167 91.5 402.5C93.5 403.374 97.9 405.099 99.5 405Z" fill="#A4A18E"/>
<path d="M130 403.5C121.2 404.7 107.667 407 102 408C103.167 409.667 105.9 413.3 107.5 414.5C109.5 416 123 431.5 128.5 434C134 436.5 151.5 442 158.5 442C165.5 442 188.5 440.5 196.5 439.5C204.5 438.5 217.5 430.5 226.5 425.5C233.7 421.5 241.833 410.833 245 406C242.167 405.667 236 405 234 405C231.5 405 209.5 402 204 402H166.5C163 402 141 402 130 403.5Z" fill="#ADAB99"/>
<path d="M137.389 405.397C129.817 405.397 114.642 407.185 108 408.079C108.996 408.973 111.586 411.118 113.977 412.549C116.966 414.336 126.43 418.806 132.408 420.594C138.385 422.381 149.842 425.063 157.313 426.404C164.785 427.745 178.732 426.404 182.717 426.404C186.702 426.404 198.657 423.722 203.638 422.828C208.619 421.935 216.091 417.018 220.574 415.677C225.057 414.336 233.525 411.655 235.517 410.761C237.111 410.046 239.17 407.781 240 406.738C236.015 406.589 227.149 406.112 223.562 405.397C219.079 404.503 208.619 405.397 203.638 405.397H170.762H137.389Z" fill="#342E37"/>
<mask id="mask0_28_113951" style="mask-type:alpha" maskUnits="userSpaceOnUse" x="108" y="405" width="132" height="22">
<path d="M137.389 405.397C129.817 405.397 114.642 407.185 108 408.079C108.996 408.973 111.586 411.118 113.977 412.549C116.966 414.336 126.43 418.806 132.408 420.594C138.385 422.381 149.842 425.063 157.313 426.404C164.785 427.745 178.732 426.404 182.717 426.404C186.702 426.404 198.657 423.722 203.638 422.828C208.619 421.935 216.091 417.018 220.574 415.677C225.057 414.336 233.525 411.655 235.517 410.761C237.111 410.046 239.17 407.781 240 406.738C236.015 406.589 227.149 406.112 223.562 405.397C219.079 404.503 208.619 405.397 203.638 405.397H170.762H137.389Z" fill="#342E37"/>
</mask>
<g mask="url(#mask0_28_113951)">
<path d="M123 406.5V412.5V413L127 416L144 417.5L194.5 418L225.5 414C225.833 413.5 226.5 412.2 226.5 411C226.5 409.8 227.167 406.833 227.5 405.5L222 404H200.5L181 403L141 405C139.667 404.833 136.2 404.6 133 405C129.8 405.4 125 406.167 123 406.5Z" fill="#C9C7BA"/>
<path d="M123 412.4V423.5L130.5 429.42L137.5 432.38L155.5 439.78C160.5 440.027 172 442 176 442C180 442 189.5 437.807 193.5 436.82L210.5 431.64L226 420.54V412.4C225.833 410.92 225.1 407.96 223.5 407.96C221.9 407.96 220.167 408.947 219.5 409.44C219.5 408.453 218.9 406.48 216.5 406.48C214.1 406.48 213.5 408.453 213.5 409.44C212.5 407.96 209.6 405 206 405C202.4 405 200.167 409.933 199.5 412.4C198.667 411.413 196.5 409.44 194.5 409.44C192.5 409.44 190.333 412.4 189.5 413.88C188.5 411.413 185.1 406.48 179.5 406.48C173.9 406.48 170.833 411.413 170 413.88C169 410.92 165.7 405 160.5 405C155.3 405 152.667 409.933 152 412.4C151.167 410.427 148.7 406.48 145.5 406.48C142.3 406.48 140.833 411.413 140.5 413.88C139.833 411.413 137.6 406.48 134 406.48C130.4 406.48 129.167 411.907 129 414.62C128.5 412.893 127.3 409.44 126.5 409.44C125.5 409.44 123 410.18 123 412.4Z" fill="white"/>
</g>
<path d="M126 338.5C126.4 335.3 132.833 332.833 136 332C134.333 332.333 130.6 333.2 129 334C127 335 126 335.5 125 337.299C124 339.098 123 342 122.5 345.5C122 349 123.5 352 125 354C126.5 356 130 360 131 360.5C132 361 137 361 142.5 361.5C148 362 149 363.5 150.5 364C152 364.5 156.5 370 159 371.5C161.5 373 168.5 373.5 170.5 373.5C172.5 373.5 178 372.5 179.5 372C181 371.5 185.5 368 186.5 366.5C187.5 365 194.5 362.5 196 362C197.5 361.5 204 362.5 205.5 362.5C207 362.5 211 361.5 212 361C213 360.5 217 357.5 218 356.5C219 355.5 220 352.5 220.5 351C221 349.5 221.5 342.5 220.5 340.5C219.7 338.9 215.833 335.833 214 334.5L205.5 330.5C208.833 332.333 216 336.6 218 339C220.5 342 219 347 219 350.5C219 354 214.5 357 211.5 359.5C208.5 362 199.5 360.5 197 360.5C194.5 360.5 186.5 364.5 183.5 367C180.5 369.5 179 372 168.5 372C158 372 153 363 150 361.5C147 360 137 359.5 133.5 359.5C130 359.5 127 354.5 125 351C123 347.5 125.5 342.5 126 338.5Z" fill="#342E37"/>
<path d="M83 388C84.6 384 91.3334 379.333 94.5 377.5C92.5 378.5 83 383.5 80.5 387C78 390.5 77 395 77 400C77 404 81 417.667 83 424C82.5 417.667 81.5 404.5 81.5 402.5C81.5 400 81 393 83 388Z" fill="#342E37"/>
<path d="M263 380.5C261 376.5 252.167 367.167 248 363C253.833 367.333 266.2 377.9 269 385.5C272.5 395 271.5 402.5 270.5 407.5C269.7 411.5 263.167 421.833 260 426.5C261.5 423.667 264.7 417.2 265.5 414C266.5 410 267.5 399.5 267.5 395.5C267.5 391.5 265.5 385.5 263 380.5Z" fill="#342E37"/>
<path d="M345 291C341.4 293.8 337.833 299.833 336.5 302.5C338 296.5 343 291 344.5 289.5C346 288 351.5 284.5 353.5 284C355.5 283.5 358.5 283 361 285.5C363 287.5 362.833 290.667 362.5 292C362.333 291.167 361.9 289.2 361.5 288C361 286.5 358 285.5 356 285.5C354 285.5 349.5 287.5 345 291Z" fill="#342E37"/>
<path d="M356.5 336.5C357.7 331.3 358.333 323.333 358.5 320L358 314.5C358.667 317.333 360 323.4 360 325C360 327 359.5 337.5 355.5 344.5C352.3 350.1 347.833 356.167 346 358.5L345.5 356C346.333 355 348.4 352.5 350 350.5C352 348 355 343 356.5 336.5Z" fill="#342E37"/>
<path d="M339 311.5C337.8 310.3 335.5 310.667 334.5 311L334 314C334.667 313.667 336.3 313 337.5 313C338.7 313 340.667 314.667 341.5 315.5C341.167 314.667 340.2 312.7 339 311.5Z" fill="#342E37"/>
<path d="M18.5 291.5C22.9 290.7 25.6667 296.5 26.5 299.5L25.5 301H21C19.5 301 18.5 304.5 16 309.5C14 313.5 13.5 320.167 13.5 323C13.3333 319.833 13.3 312.7 14.5 309.5C16 305.5 18.5 300.5 19.5 299.5C20.3 298.7 23.1667 299.167 24.5 299.5C24 299 22.8 297.6 22 296C21 294 18.5 294 17 294C15.8 294 10.8333 297.667 8.5 299.5C10 297.167 14.1 292.3 18.5 291.5Z" fill="#342E37"/>
<path d="M21 334.5C21.0372 334.797 21.0926 335.186 21.1652 335.633C21.7175 337.877 23.5202 341.32 24.5 343L25 346C24.5 345.167 23.3 343 22.5 341C21.8785 339.446 21.4179 337.188 21.1652 335.633C21.0599 335.205 21 334.82 21 334.5Z" fill="#342E37"/>
<path d="M105.5 260C121.1 258.4 132.333 265.333 136 269C134.5 267.5 131 264.2 129 263C126.5 261.5 121.5 259 113.5 258.5C105.5 258 101 258 94 259.5C87 261 78 264 75 266C72 268 67.5 276.5 63.5 278C60.3 279.2 55.5 278.833 53.5 278.5C54.5 279 56.9 280 58.5 280C60.5 280 64.5 279.5 66.5 278.5C68.5 277.5 74.5 270.5 76.5 268.5C78.5 266.5 86 262 105.5 260Z" fill="#938F79"/>
<path d="M79 275.5C76.8333 276.5 72.2 278.9 71 280.5C69.5 282.5 67.5 284.5 66 284.5C65.3595 284.5 63.3611 284.69 61.206 284.918C59.3101 285.241 57.3305 285.426 56 285.5C57.3211 285.345 59.3233 285.117 61.206 284.918C63.585 284.512 65.8322 283.89 66.5 283C68 281 70 279 72.5 278C74.5 277.2 77.6667 276 79 275.5Z" fill="#938F79"/>
<path d="M105 297.5C110.2 296.7 117.167 293.833 120 292.5C118.167 293 113.7 294.2 110.5 295C106.5 296 102.5 296 95 297.5C89 298.7 83.1667 303.333 81 305.5C82.5 304.667 86.1 302.7 88.5 301.5C91.5 300 98.5 298.5 105 297.5Z" fill="#938F79"/>
<path d="M74 300.5C77.2 298.5 87.6667 295.667 92.5 294.5C89 294.667 80.6 295.7 75 298.5C69.4 301.3 64 307.667 62 310.5C64.6667 308 70.8 302.5 74 300.5Z" fill="#938F79"/>
<path d="M46 314C48 311.5 56 305.5 63.5 299C69.0696 294.173 74.7828 293.281 77.4402 293.445C70.3803 292.389 62.5 296.5 59.5 299C56.5 301.5 50.5 307 45.5 313C41.5 317.8 39.8333 322.333 39.5 324C41 321.5 44.4 316 46 314Z" fill="#938F79"/>
<path d="M220.5 259.5C214.9 261.1 208.167 265.167 205.5 267H205C207.333 264.833 212.5 260.2 214.5 259C217 257.5 225 256 231 256C237 256 253 258.5 259 261C265 263.5 268.5 265.5 274 270.5C279.5 275.5 281.5 277.5 283.5 278C285.1 278.4 289.5 277.833 291.5 277.5C289.667 278.167 285.5 279.5 283.5 279.5C281 279.5 280 278.5 278 277.5C276 276.5 271.5 269.5 267.5 267C263.5 264.5 252.5 261.5 242 259.5C231.5 257.5 227.5 257.5 220.5 259.5Z" fill="#938F79"/>
<path d="M290 286C283.2 285.6 279.833 284.167 279 283.5C281.333 283.5 287.1 283.7 291.5 284.5C295.9 285.3 302.333 285.833 305 286C302.833 286.167 296.8 286.4 290 286Z" fill="#938F79"/>
<path d="M233.5 296C223.9 294.8 218.167 291.167 216.5 289.5C218.5 291 229.5 294.5 237 295.5C244.5 296.5 252.5 297 260.5 298C266.9 298.8 271.833 302 273.5 303.5C271.5 302.5 266 300.3 260 299.5C252.5 298.5 245.5 297.5 233.5 296Z" fill="#938F79"/>
<path d="M268.5 293.5C265.7 292.7 258 293.833 254.5 294.5C255.667 293.833 258.9 292.4 262.5 292C267 291.5 270 291.5 272 292.5C273.6 293.3 276.667 296.5 278 298C276 296.833 271.3 294.3 268.5 293.5Z" fill="#938F79"/>
<path d="M98.5 293C93.7 293 84.1667 290.667 80 289.5C83.3333 290 91.1 291.1 95.5 291.5C101 292 107.5 291 111.5 290.5C114.7 290.1 117.167 288.667 118 288C117.5 288.5 116.2 289.7 115 290.5C113.5 291.5 104.5 293 98.5 293Z" fill="#938F79"/>
<path d="M245 291C238.2 291.4 229.5 289.5 226 288.5C228 289.5 233.4 291.6 239 292C246 292.5 248 291.5 252.5 291C256.1 290.6 259.667 288.833 261 288C258.5 288.833 251.8 290.6 245 291Z" fill="#938F79"/>
<path d="M108 77C115.6 84.2 118.833 97 119.5 102.5L130.5 105.5V102.5L142.5 108L139 93C132.5 85.3333 118.2 68.6 113 63C107.8 57.4 86.5 46 76.5 41L100.5 65.5L80 58.5C86.1667 61.6667 100.4 69.8 108 77Z" fill="#797662"/>
<path d="M129 65.5C132.2 68.7 137 80.5 139 86L147.5 96.5V94L160.5 105.5L152.5 86L163.5 96.5C158.667 87.3333 146.2 65.3 135 50.5C123.8 35.7 112.333 30.6667 108 30C108.833 30.5 111.4 32 115 34C118.6 36 126.833 46.5 130.5 51.5L145.5 86C142 79.6667 134.6 66.2 133 63C131.4 59.8 117.333 49.3333 110.5 44.5C115.333 50.1667 125.8 62.3 129 65.5Z" fill="#797662"/>
<path d="M184.5 102.5C184.167 99 182.2 89.6 177 80C171.931 70.641 160.43 55.4526 154.914 48.5189C151.604 45.5089 148.623 42.8574 146.5 41L154.5 48C154.634 48.1673 154.772 48.3404 154.914 48.5189C162 54.962 170.593 63.0473 175.5 68.5C182.427 76.1965 186.207 82.9675 187.374 85.6962C185.313 80.7332 180.851 70.4182 178.5 66.5C176.1 62.5 171.167 55.8333 169 53C176.5 61.5 191.7 79.1 192.5 81.5C193.3 83.9 196.833 93.5 198.5 98L189 94L184.5 103.5V102.5Z" fill="#797662"/>
<path d="M195.5 63C203.5 73 207.833 84.1667 209 88.5L212 91.5L213.5 88.5V93L216 91.5L215 81.5L224 85L217 74.5C215.4 72.1 198.667 53.1667 190.5 44C191.167 45.3333 193.1 48.5 195.5 50.5C197.9 52.5 205.5 67.3333 209 74.5C205 69.6667 196.7 59.3 195.5 56.5C194.3 53.7 179.667 43.6667 172.5 39C176.833 42.8333 187.5 53 195.5 63Z" fill="#797662"/>
<path d="M226.5 59.5C231.7 65.5 234.667 72 235.5 74.5L239 80V74.5L241.5 77.5L247 74.5C245.667 72.1667 242.5 66.4 240.5 62C238.5 57.6 227.667 48.8333 222.5 45C223.833 46.5 227.1 50.2 229.5 53C231.9 55.8 235.5 64.5 237 68.5C235.833 66.6667 232.9 62.3 230.5 59.5C228.1 56.7 215.833 46.3333 210 41.5C213.333 45 221.3 53.5 226.5 59.5Z" fill="#797662"/>
<path d="M222 265.5C217.2 267.5 209 273.333 205.5 276C207 276.333 210.7 276.8 213.5 276C217 275 228.5 276 233 276H255C257.4 276 263 272.667 265.5 271C263 269.5 257.6 266.3 256 265.5C254 264.5 246 261.5 238 261.5C230 261.5 228 263 222 265.5Z" fill="#ADAB99"/>
<path d="M128.5 269.5C132.9 271.1 135 274.5 135.5 276C131 275.667 121.6 275 120 275C118 275 110.5 276 107.5 276C104.5 276 94 276.5 90 276C86.8 275.6 80.3333 273.167 77.5 272C81 270.167 89.1 266.1 93.5 264.5C99 262.5 106 263 112 263C118 263 123 267.5 128.5 269.5Z" fill="#ADAB99"/>
<mask id="mask1_28_113951" style="mask-type:alpha" maskUnits="userSpaceOnUse" x="83" y="262" width="178" height="14">
<path d="M224.5 265C218.5 267.4 216.667 270.333 216.5 271.5C215.947 272.7 217.936 274.667 219 275.5C219.667 275.667 222.4 276 228 276H249C251.4 276 257.667 274.333 260.5 273.5C260.667 273 261 271.7 261 270.5C261 269 260 269 255.5 267C251.9 265.4 244.333 263.333 241 262.5C238 262.333 230.5 262.6 224.5 265Z" fill="#D9D9D9"/>
<path d="M115.5 264.5C117.5 264.5 121 268.833 122.5 271V271.5L121 274H117C116 274 107.5 275 97 275.5C88.6 275.9 84.8333 275.333 84 275L83 271C84.5 270 87.9 267.8 89.5 267C91.5 266 97 264 102.5 263C108 262 113 264.5 115.5 264.5Z" fill="#D9D9D9"/>
</mask>
<g mask="url(#mask1_28_113951)">
<path d="M224.5 265C218.5 267.4 216.667 270.333 216.5 271.5C215.947 272.7 217.936 274.667 219 275.5C219.667 275.667 222.4 276 228 276H249C251.4 276 257.667 274.333 260.5 273.5C260.667 273 261 271.7 261 270.5C261 269 260 269 255.5 267C251.9 265.4 244.333 263.333 241 262.5C238 262.333 230.5 262.6 224.5 265Z" fill="#D9D9D9"/>
<path d="M115.5 264.5C117.5 264.5 121 268.833 122.5 271V271.5L121 274H117C116 274 107.5 275 97 275.5C88.6 275.9 84.8333 275.333 84 275L83 271C84.5 270 87.9 267.8 89.5 267C91.5 266 97 264 102.5 263C108 262 113 264.5 115.5 264.5Z" fill="#D9D9D9"/>
<path d="M97.5 258.5C94.5 258.5 91 265.5 92 271.5C92.4 275.5 95.8333 278.167 97.5 279L112.5 279.5C114.167 277.5 117.7 272.4 118.5 268C119.3 263.6 117.5 260.833 116.5 260C111.167 259.5 99.9 258.5 97.5 258.5Z" fill="#938F79"/>
<path d="M227 269.5C225.4 265.1 227.667 260.667 229 259C234 259.667 245.1 261 249.5 261C255 261 253 265 252.5 269.5C252.1 273.1 249.667 276.667 248.5 278L234.5 280.5C232.667 278.667 228.6 273.9 227 269.5Z" fill="#938F79"/>
<circle cx="240" cy="268" r="4" fill="#342E37"/>
<circle cx="105.5" cy="268.5" r="3.5" fill="#342E37"/>
<circle cx="107.5" cy="266.5" r="1.5" fill="white"/>
<circle cx="242.5" cy="265.5" r="1.5" fill="white"/>
</g>
<path fill-rule="evenodd" clip-rule="evenodd" d="M28 276L29.5 267H36.5H37.5C37.5 269.667 37.7 276.1 38.5 280.5C38.6565 281.361 38.8497 282.466 39.072 283.738C40.2702 290.594 42.313 302.282 44 306.5C46 311.5 50.5 320.5 53 322.5C55.5 324.5 63 329.5 69 330.5C75 331.5 91 333 99.5 332.5C108 332 122 331 126.5 329C131 327 137.5 322.5 141 315.5C144.5 308.5 147 302 149.5 294.5C152 287 153.5 277.5 153.5 276V270H176.5H185.5C185.667 274 186.2 282.9 187 286.5C188 291 191 299.5 193 304.5C193.314 305.285 193.665 306.194 194.048 307.184C196.1 312.494 199.05 320.128 202 323.5C205.5 327.5 211.5 331 214 332C216.5 333 224 335 230.5 335H256C262.5 335 276.4 334.5 280 332.5C280.535 332.203 281.028 331.933 281.486 331.683C284.878 329.831 286.357 329.024 289 325.5C292 321.5 295 315.5 296.5 311.5C298 307.5 300.5 297.5 301 294C301.5 290.5 302.5 282.5 302.5 280V275C303.5 274.333 305.8 273 307 273C307.75 273 310.875 272.875 314 272.75C317.125 272.625 320.25 272.5 321 272.5C322.2 272.5 328.833 274.833 332 276H336.5L338 272.5C338 271.5 337.5 269.4 335.5 269C334.25 268.75 332.875 268.75 331.312 268.75C329.75 268.75 328 268.75 326 268.5C322.8 268.1 320 267.333 319 267H303.5C303.333 264 302.5 257.6 300.5 256C300.017 255.613 299.496 255.096 298.898 254.502C296.404 252.023 292.567 248.21 284.5 247C281.821 246.598 279.356 246.196 277.069 245.823C270.821 244.804 265.892 244 261.5 244C256.7 244 249.833 243.667 247 243.5C247.167 242.333 247.1 240 245.5 240C244.871 240 242.61 239.852 239.51 239.648C232.753 239.205 222.012 238.5 215.5 238.5C211.624 238.5 205.501 238.167 198.251 237.773C187.731 237.201 174.84 236.5 163 236.5C150.262 236.5 133.67 236.703 121.621 236.85C114.752 236.934 109.36 237 107 237C101.8 237 98.1667 237.333 97 237.5C96.3333 238.5 95 240.6 95 241C95 241.386 80.7228 241.176 72.8156 241.061C70.4708 241.026 68.6861 241 68 241C65 241 51.5 242 47.5 245.5C43.5 249 40.5 252 40 254C39.8333 254.667 39.6111 255.5 39.3889 256.333C38.9444 258 38.5 259.667 38.5 260C38.5 260.4 31.5 260.167 28 260C27.3333 260.833 26 262.7 26 263.5V269V275.5L28 276ZM116.5 242.5C123.667 243.667 138.8 246.4 142 248C146 250 152 256.5 152.5 259C152.9 261 153.333 263.5 153.5 264.5H186C186.833 261.667 189.3 255.5 192.5 253.5C196.5 251 208.5 247 211.5 246.5C213.9 246.1 220.167 245.333 223 245C213 244.167 187.9 242.5 167.5 242.5H116.5ZM41 266C41 264.4 41.6667 262.667 42 262C42 260.5 42.3 256.9 43.5 254.5C45 251.5 49 248.5 54 246.5C58 244.9 64 244.167 66.5 244H105.5C109 244 122.5 246.5 130 248C135.71 249.142 139.392 251.444 142.81 253.58C143.881 254.25 144.926 254.903 146 255.5C150.5 258 150.5 263 150.5 266.5C150.5 270 150.5 277.5 149.5 283C148.822 286.731 146.992 292.074 145.574 296.217L145.574 296.217C144.902 298.181 144.322 299.875 144 301C143 304.5 138 316 133.5 321C129.279 325.69 126.817 326.421 122.402 327.731C122.11 327.818 121.81 327.907 121.5 328C117.505 329.198 111.596 329.12 105.556 329.04C104.036 329.02 102.508 329 101 329C93.5 329 82 328.5 76 328C70 327.5 65 326.5 61.5 325.5C58 324.5 55.5 321.5 52 317C49.3122 313.544 47.8038 308.319 46.5692 304.042L46.5692 304.042C46.1961 302.75 45.8481 301.544 45.5 300.5C44 296 42 283.5 41.5 278.5C41 273.5 41 268 41 266ZM188.5 264.5C188.5 262.9 191.167 259.167 192.5 257.5C193.905 255.615 199.694 253.314 202.477 252.208C202.666 252.133 202.841 252.064 203 252C205.5 251 214 248.5 220.5 248C227 247.5 237.5 247.5 247.5 247.5C257.5 247.5 270 248.5 275 249C280 249.5 286 251.5 291 253.5C295.229 255.192 297.67 259.387 298.927 261.548L298.927 261.549L298.928 261.55C299.156 261.943 299.346 262.269 299.5 262.5C300.252 263.627 300.156 267.861 300.062 272.018C300.031 273.392 300 274.758 300 276C300 281 299 288.5 298 294C297 299.5 295.5 306.5 292.5 313C290.34 317.681 289.216 319.51 288.01 321.474L288.01 321.474L288.009 321.475L288.009 321.475C287.54 322.238 287.059 323.021 286.5 324C284.777 327.016 281.94 328.175 278.949 329.398C278.469 329.594 277.984 329.792 277.5 330C274 331.5 264 332.5 259.5 332.5H238C231.711 332.5 225.773 331.797 221.367 331.275L221.367 331.275C220.518 331.174 219.727 331.081 219 331C215.637 330.626 213.112 328.857 210.381 326.943C209.458 326.295 208.511 325.632 207.5 325C203.948 322.78 200.003 314.648 198.113 310.752C197.874 310.261 197.668 309.836 197.5 309.5C196.547 307.594 194.786 301.448 193.244 296.065L193.244 296.065C192.359 292.977 191.547 290.14 191 288.5C189.5 284 188.5 278 188.5 276V264.5Z" fill="#342E37"/>
</svg>
